<svg viewBox="-37.5 154.1353383458645 2775.000000000001 1879.6992481203006" xmlns="http://www.w3.org/2000/svg" xmlns:blush="http://design.blush" overflow="visible" xmlns:xlink="http://www.w3.org/1999/xlink" width="2775.000000000001px" height="1879.6992481203006px"><g id="Master/Scene/Front Desk" stroke="none" stroke-width="1" fill="none" fill-rule="evenodd" blush:viewBox="240 301.80180180180173 2505.0000000000005 1711.711711711712" blush:i="0"><g id="Furniture" blush:width="1200" blush:height="2000" blush:component="Furniture" blush:i="0.0" blush:value="Plant2" transform="scale(1 1)" blush:viewBox="-9.999999999999886 170 1210 1829.9999999999993"><g id="Furniture/Plant2" stroke="none" stroke-width="1" fill="none" fill-rule="evenodd" blush:viewBox="-9.999999999999886 170 1210 1829.9999999999993" blush:i="0.0.0"><g id="Group" transform="translate(351.000000, 1514.000000)" blush:i="0.0.0.0"><path d="M22.6209752,0 L476.912952,0 C487.958647,1.21817935e-14 496.912952,8.954305 496.912952,20 C496.912952,20.9540676 496.844683,21.9069124 496.70867,22.8512351 L434.939973,451.70247 C432.104632,471.387843 415.237053,486 395.348537,486 L95.3654072,486 C75.1693107,486 58.1413564,470.944987 55.6667979,450.901063 L2.77167055,22.4505314 C1.4182794,11.4880632 9.20797551,1.50408648 20.1704438,0.150695336 C20.9834307,0.0503265784 21.8018161,1.43613318e-14 22.6209752,0 Z" id="Vase" fill="#DFE9EE" blush:i="0.0.0.0.0"/><path d="M247,444.5 L247,452.5 L219,452.5 L219,444.5 L247,444.5 Z M154,411.5 L154,419.5 L126,419.5 L126,411.5 L154,411.5 Z M216,386 L216,394 L188,394 L188,386 L216,386 Z M134,359 L134,367 L106,367 L106,359 L134,359 Z M150,249.5 L150,257.5 L122,257.5 L122,249.5 L150,249.5 Z M97,213 L97,221 L69,221 L69,213 L97,213 Z M156,186.5 L156,194.5 L128,194.5 L128,186.5 L156,186.5 Z M117,144 L117,152 L89,152 L89,144 L117,144 Z" id="Combined-Shape" fill="#000" fill-rule="nonzero" blush:i="0.0.0.0.1"/></g><path d="M202,178 C300.76939,178 382.982136,248.887418 400.537268,342.561282 C540.925149,351.594081 652,468.325579 652,611 C652,619.082869 651.643504,627.082474 650.945378,634.98395 C770.046321,683.509017 854,800.450292 854,937 C854,1073.14233 770.546507,1189.79305 652.004808,1238.58687 L652,1514 L552,1514 L552.003268,1262.12975 C544.07744,1262.70655 536.072989,1263 528,1263 C347.955172,1263 202,1117.04483 202,937 C202,898.040487 208.834161,860.677178 221.369054,826.043503 C156.165763,776.96354 114,698.905941 114,611 C114,594.901947 115.414068,579.134168 118.124766,563.814098 C48.4295362,531.964898 0,461.638111 0,380 C0,268.438481 90.4384805,178 202,178 Z" id="Combined-Shape" fill="#CAEFDD" fill-rule="nonzero" blush:i="0.0.0.1"/><path d="M296.459215,449.74581 C490.631352,643.485492 601.531395,905.185696 605.867941,1179.18126 L605.966709,1187.48786 L606,1195.86676 L606,1514 L598,1514 L598.000032,1195.88267 L597.966867,1187.53559 C595.802147,915.394545 487.649175,654.881937 296.622695,461.255892 L290.80867,455.408967 L296.459215,449.74581 Z" id="Path-89" fill="#000" fill-rule="nonzero" blush:i="0.0.0.2"/><path d="M1087,643 C1149.40818,643 1200,693.591823 1200,756 C1200,804.556505 1169.37387,845.959892 1126.38471,861.947049 C1128.10687,872.708639 1129,883.750018 1129,895 C1129,1000.0835 1051.07416,1086.96644 949.856901,1101.01441 L949.861403,1101.00537 C960.27648,1127.31214 966,1155.98767 966,1186 C966,1313.57778 862.577777,1417 735,1417 C719.154762,1417 703.682143,1415.40463 688.734009,1412.36576 C684.573016,1443.60742 682.313648,1475.25739 682.030418,1507.14927 L682,1514 L582,1514 C582,1465.06928 586.119441,1416.61768 594.147147,1369.09609 C539.322616,1326.86606 504,1260.55805 504,1186 C504,1062.81848 600.417284,962.156431 721.900511,955.365184 C716.111116,936.266841 713,915.996741 713,895 C713,780.124772 806.124772,687 921,687 C945.055721,687 968.157653,691.083656 989.650378,698.595552 C1009.31039,665.318868 1045.54877,643 1087,643 Z" id="Combined-Shape" fill="#A8DEC4" fill-rule="nonzero" blush:i="0.0.0.3"/><path d="M952.413395,842.938515 L957.562108,849.061485 L951.651183,854.03184 C759.737282,1016.8696 648.244181,1255.11352 646.03351,1506.61657 L646,1514.24187 L638,1514.24187 C638,1260.15112 748.586343,1018.80852 940.644062,852.923975 L946.488901,847.920332 L952.413395,842.938515 Z" id="Path-89" fill="#000" fill-rule="nonzero" blush:i="0.0.0.4"/><path d="M126,937 C169.159177,937 207.270175,958.613821 230.099408,991.607878 C259.644186,974.06871 294.146257,964 331,964 C440.35238,964 529,1052.64762 529,1162 C529,1172.95307 528.110631,1183.69841 526.400168,1194.16776 C584.804261,1209.02829 628,1261.96969 628,1325 C628,1360.4709 614.319992,1392.74666 591.948114,1416.83914 L591.958671,1416.83145 C597.874003,1445.60964 601.267417,1475.31095 601.897357,1505.69492 L601.999479,1513.77169 L502.000521,1514.22831 C501.91632,1495.78824 500.553405,1477.65187 497.996021,1459.90306 L497.986193,1459.90963 C496.331552,1459.9697 494.669314,1460 493,1460 C429.677501,1460 376.537663,1416.40285 361.959417,1357.58748 C351.874231,1359.17751 341.533166,1360 331,1360 C231.044311,1360 148.387932,1285.93285 134.920619,1189.68831 C131.97839,1189.89547 129.001402,1190 126,1190 C56.1359792,1190 -0.5,1133.36402 -0.5,1063.5 C-0.5,993.635979 56.1359792,937 126,937 Z" id="Combined-Shape" fill="#8ED1B0" fill-rule="nonzero" blush:i="0.0.0.5"/><path d="M187.203272,1083.50703 C295.818692,1109.45546 388.525984,1160.41138 454.836819,1231.77801 C524.152761,1306.37887 562.829245,1401.06954 565.821323,1510.29763 L565.901064,1513.61201 L557.902783,1513.77784 C555.64984,1405.1115 517.65519,1311.13883 448.976184,1237.22347 C384.444105,1167.77121 294.311366,1117.89055 188.553912,1092.06334 L185.344368,1091.28807 L187.203272,1083.50703 Z" id="Path-89" fill="#000" fill-rule="nonzero" blush:i="0.0.0.6"/></g></g><g transform="translate(1100.000000, -600.000000) scale(1 1)" blush:has-customizable-colors="true" blush:width="1400" blush:height="1800" id="Master/Character/Bust" blush:component="Master/Character/Bust" blush:i="0.1" blush:value="Bust" blush:viewBox="371.5938303341902 909 701.7994858611825 890.9999999999998"><defs blush:i="0.1.0"><path d="M346,1 L403,44 C455.330837,60.5927043 498.49333,98.0479325 522.293031,147.519222 L574,255 L574,255 L617,159 L692,193 L638.025428,319.887591 C620.730898,360.544906 573.751646,379.484186 533.09433,362.189656 C518.03103,355.782133 505.295877,344.907933 496.607485,331.034533 L454,263 L454,263 L473.56662,500.594673 C474.507448,512.019006 472.594589,523.498081 468,534 L468,534 L468,534 L122.243501,534 C67.0150256,534 22.2435006,489.228475 22.2435006,434 C22.2435006,427.344215 22.9079885,420.705057 24.2270788,414.181295 L66.6882657,204.183034 C82.3396526,126.776718 138.279412,63.6979364 213.259839,38.9060209 L216,38 L216,38 L271,0 L324.45715,50.637 L346,1 Z" id="mastercharacterbust-path-1" blush:i="0.1.0.0"/></defs><g id="Master/Character/Bust" stroke="none" stroke-width="1" fill="none" fill-rule="evenodd" blush:has-customizable-colors="true" blush:viewBox="371.5938303341902 909 701.7994858611825 890.9999999999998" blush:i="0.1.1"><g id="Head" transform="translate(560.999650, 1072.000000)" fill="#ffeb81" blush:color="Skin-500" blush:i="0.1.1.0"><path d="M173.4931,66.499221 C182.1061,110.758221 197.9031,184.720221 112.0001,190.645221 C47.3491,195.103221 34.1221,133.336221 28.0001,98.645221 C19.0001,47.645221 36.0001,13.645221 84.0001,2.64522101 C149.3581,-12.333779 168.3391,40.016221 173.4931,66.499221" blush:i="0.1.1.0.0"/><path d="M140,217 L140,172 L66,172 L64,214 L-6.39488462e-13,246.644721 L37.2,279.966721 C78.318,316.799721 141.503,313.346721 178.363,272.252721 L201.333,246.644721 L140,217 Z" id="Neck" blush:i="0.1.1.0.1"/></g><g id="Hair" transform="translate(403.999650, 878.000000) scale(1 1)" blush:width="500" blush:height="500" blush:component="Hair" blush:i="0.1.1.1" blush:value="Small Bun" blush:viewBox="0 134.99999999999994 382.50000000000006 274.99999999999994"><g id="Hair/Small Bun" stroke="none" stroke-width="1" fill="none" fill-rule="evenodd" blush:viewBox="0 134.99999999999994 382.50000000000006 274.99999999999994" blush:i="0.1.1.1.0"><path d="M378.719848,216.341688 C348.600803,98.1621777 100.531042,110.087743 134.104036,243.446719 C136.070612,251.261179 137.944588,258.667887 139.743327,265.714338 C107.581313,240.298231 60.898588,240.730308 29.1266479,268.861668 C-6.58191524,300.477446 -9.9189586,355.075567 21.672413,390.811718 C53.2637847,426.546711 84.8111717,403.858599 120.519735,372.24282 C136.112281,358.436039 149.919978,345.210767 157.897398,331.714434 C174.970374,385.80634 188.161129,394.892706 221.626477,392.776338 C221.626477,392.776338 408.838892,334.521198 378.719848,216.341688" id="Hair" fill="#ffeb81" blush:color="Skin-500" blush:i="0.1.1.1.0.0"/></g></g><g id="Face" transform="translate(592.999650, 1122.000000) scale(1 1)" fill="#000" blush:width="180" blush:height="150" blush:component="Face" blush:i="0.1.1.2" blush:value="Normal" blush:viewBox="74.70000000000002 11.600719424460436 78.29999999999997 129.49640287769788"><g id="Face/Normal" stroke="none" stroke-width="1" fill="none" fill-rule="evenodd" blush:viewBox="74.70000000000002 11.600719424460436 78.29999999999997 129.49640287769788" blush:i="0.1.1.2.0"><path d="M138.007134,13.7702134 L145.857426,12.2297866 L147.549095,20.8795674 L148.018253,23.3396028 C150.609344,37.0644778 152.103078,47.4422921 152.719024,57.8208348 L152.76153,58.5622057 C153.98411,80.6614745 150.609705,98.5962452 141.031202,112.508343 C129.646431,129.04392 110.03365,138.785988 81.1510446,140.92809 L80.2729757,140.990675 L79.7270243,133.009325 C106.810648,131.156714 124.44055,122.497958 134.441949,107.971632 C142.846582,95.7644971 145.907418,79.4963265 144.773744,59.0041074 L144.689081,57.5786659 C144.070509,47.8319356 142.627723,37.9089558 140.153411,24.804129 L139.313239,20.428357 L138.007134,13.7702134 Z" id="Stroke-9" fill="#000" fill-rule="nonzero" blush:i="0.1.1.2.0.0"/><path d="M86.4723645,29.1098949 C87.6716409,37.3704166 86.9786165,44.3213927 82.8096565,44.9575153 C78.6406965,45.593638 76.9764547,39.0035684 75.7771783,30.7430466 C74.577902,22.4825248 74.290862,15.6807503 78.4667031,15.0436195 C82.6435272,14.4054806 85.2730881,20.8493731 86.4723645,29.1098949" id="Eye-L" fill="#000" blush:i="0.1.1.2.0.1"/><path d="M119.472365,28.1097699 C120.671641,36.3702923 119.978616,43.3212689 115.809656,43.9573917 C111.640696,44.5945225 109.976455,38.0034442 108.777178,29.7429218 C107.577902,21.4823993 107.290862,14.6816324 111.466703,14.0434934 C115.643527,13.4063625 118.273088,19.8492474 119.472365,28.1097699" id="Eye-R" fill="#000" blush:i="0.1.1.2.0.2"/></g></g><g id="Upper Body Bust" transform="translate(100.000000, 1160.000000) scale(1 1)" blush:width="1200" blush:height="1180" blush:component="Upper Body Bust" blush:i="0.1.1.3" blush:value="Sweater" blush:viewBox="300 98.33333333333326 521.9999999999998 611.5853658536585"><g id="Upper Body Bust/Sweater" stroke="none" stroke-width="1" fill="none" fill-rule="evenodd" blush:viewBox="300 98.33333333333326 521.9999999999998 611.5853658536585" blush:i="0.1.1.3.0"><g id="Group" transform="translate(303.000000, 99.000000)" blush:i="0.1.1.3.0.0"><g id="Group-2" transform="translate(0.000208, 0.953597)" blush:i="0.1.1.3.0.0.0"><path d="M154.628592,583.713803 C130.326592,601.921803 107.262592,596.840803 93.801592,577.620803 L31.297592,448.372803 C1.00159199,405.113803 -7.87640801,350.385803 7.19259199,299.768803 L47.934592,162.521803 C60.074592,121.622803 88.360592,87.4388028 126.264592,67.8578028 L186.140592,36.9268028 C168.213592,26.9358028 179.659592,-6.46519721 206.571592,1.10680279 C245.881592,12.1678028 266.698592,17.6378028 302.130592,4.67080279 C328.303592,-4.90819721 339.958592,32.4048028 325.942592,38.3628028 L397.792592,73.4468028 C441.866592,94.9678028 473.299592,135.908803 482.707592,184.045803 L511.168592,329.676803 C517.094592,360.005803 513.909592,391.410803 502.011592,419.931803 L461.129592,557.939803 C449.476592,585.876803 422.611592,597.159803 390.503592,576.782803 C369.097592,563.198136 359.929659,550.952669 362.999792,540.046403 C300.333125,569.379736 238.999792,569.379736 178.999792,540.046403 C184.850992,552.601336 176.727259,567.157136 154.628592,583.713803 Z" id="Sweater" fill="#CCB465" blush:i="0.1.1.3.0.0.0.0"/><polygon id="Stroke-17" fill="#000" fill-rule="nonzero" points="185.599792 553.846403 190.399792 560.246403 126.399792 608.246403 121.599792 601.846403" blush:i="0.1.1.3.0.0.0.1"/><polygon id="Stroke-19" fill="#000" fill-rule="nonzero" points="365.452957 553.660282 432.957957 591.558482 429.041627 598.534323 361.536627 560.636123" blush:i="0.1.1.3.0.0.0.2"/></g><polygon id="Stroke-13" fill="#000" fill-rule="nonzero" points="107.638237 357.337702 160.638237 473.337702 153.361763 476.662298 100.361763 360.662298" blush:i="0.1.1.3.0.0.1"/><polygon id="Stroke-15" fill="#000" fill-rule="nonzero" points="410.195864 374.763656 417.804136 377.236344 378.804136 497.236344 371.195864 494.763656" blush:i="0.1.1.3.0.0.2"/><path d="M311.959218,40.214251 L316.025182,47.103949 C305.286114,53.4416231 292.739105,57.1593681 278.77186,58.6059162 C260.891758,60.4577077 241.849374,58.5507969 223.187874,54.2496131 C218.400246,53.1461395 214.00676,51.9630827 210.099752,50.7780619 L209.099115,50.4711228 C208.290051,50.2200762 207.543364,49.9811845 206.861886,49.7568103 L205.441172,49.2774748 L205.129618,49.1673961 L207.840782,41.6408039 L208.334544,41.8130638 L209.366626,42.1590291 L210.164002,42.4183049 C210.85404,42.6400117 211.607587,42.8755133 212.421748,43.1224538 C216.161253,44.2566698 220.380653,45.3928498 224.984642,46.4539972 C242.858001,50.5735271 261.065948,52.3968771 277.94773,50.6484787 C290.545825,49.3437297 301.769446,46.0732964 311.297244,40.5997069 L311.959218,40.214251 Z" id="Stroke-21" fill="#000" fill-rule="nonzero" blush:i="0.1.1.3.0.0.3"/></g></g></g></g></g><g id="Frontdesk" transform="translate(860.000000, 1200.000000)" blush:i="0.2"><path d="M25,0 L1855,0 C1868.80712,-2.53632657e-15 1880,11.1928813 1880,25 C1880,40.4099595 1871.57861,54.5879248 1858.04652,61.9601288 L1788.22222,100 L1788.22222,100 L91.7777778,100 L21.9534808,61.9601288 C8.42139078,54.5879248 1.88717576e-15,40.4099595 0,25 C-1.69088438e-15,11.1928813 11.1928813,2.53632657e-15 25,0 Z" id="Rectangle" fill="#E7D6A0" blush:i="0.2.0"/><rect id="Rectangle-Copy" fill="#E7D6A0" x="100" y="100" width="1680" height="700" blush:i="0.2.1"/><rect id="Rectangle-Copy" fill="#FFF" x="440" y="100" width="1000" height="500" blush:i="0.2.2"/><g id="Symbol" transform="translate(690.000000, 100.000000) scale(1 1)" blush:width="500" blush:height="500" blush:component="Symbol" blush:i="0.2.3" blush:value="Red Cross" blush:viewBox="187.5 190 125.00000000000011 122.50000000000011"><g id="Symbol/Red Cross" stroke="none" stroke-width="1" fill="none" fill-rule="evenodd" blush:viewBox="187.5 190 125.00000000000011 122.50000000000011" blush:i="0.2.3.0"><path d="M262.007966,190 L262.007171,238.031 L310.039829,238.031863 L310.039829,262.047795 L262.007171,262.047 L262.007966,310.079658 L237.992034,310.079658 L237.991171,262.047 L189.960171,262.047795 L189.960171,238.031863 L237.991171,238.031 L237.992034,190 L262.007966,190 Z" id="Combined-Shape" fill="#FFB395" blush:i="0.2.3.0.0"/></g></g><path d="M1544,196 L1336,196 L1336,504 L1544,504 L1544,196 Z M1536,204 L1536,496 L1344,496 L1344,204 L1536,204 Z" id="Rectangle-Copy-2" fill="#000" fill-rule="nonzero" blush:i="0.2.4"/><path d="M544,196 L336,196 L336,304 L544,304 L544,196 Z M536,204 L536,296 L344,296 L344,204 L536,204 Z" id="Rectangle-Copy-4" fill="#000" fill-rule="nonzero" blush:i="0.2.5"/><line x1="100" y1="100" x2="1780" y2="100" id="Path-90" stroke="#000" stroke-width="8" stroke-linecap="square" blush:i="0.2.6"/></g></g></svg>