<svg id="Calque_1" data-name="Calque 1" xmlns="http://www.w3.org/2000/svg" xmlns:xlink="http://www.w3.org/1999/xlink" viewBox="0 0 565.91 567.29"><defs><style>.cls-1{fill:url(#Dégradé_sans_nom_19);}.cls-2{fill:url(#Dégradé_sans_nom_16);}.cls-3{fill:url(#Dégradé_sans_nom_20);}.cls-10,.cls-4,.cls-7,.cls-8,.cls-9{stroke-miterlimit:10;}.cls-4{fill:url(#Dégradé_sans_nom_59);stroke:url(#Dégradé_sans_nom_12);}.cls-5{fill:#2e4b9a;}.cls-6{fill:url(#Dégradé_sans_nom_25);}.cls-10,.cls-7,.cls-8,.cls-9{stroke-width:6px;}.cls-7{fill:url(#Dégradé_sans_nom_59-2);stroke:url(#Dégradé_sans_nom_64);}.cls-8{fill:url(#Dégradé_sans_nom_59-3);stroke:url(#Dégradé_sans_nom_65);}.cls-9{fill:url(#Dégradé_sans_nom_59-4);stroke:url(#Dégradé_sans_nom_120);}.cls-10{fill:url(#Dégradé_sans_nom_59-5);stroke:url(#Dégradé_sans_nom_124);}.cls-11{fill:url(#Dégradé_sans_nom_59-6);}</style><linearGradient id="Dégradé_sans_nom_19" x1="409.61" y1="121.54" x2="454.56" y2="65.3" gradientUnits="userSpaceOnUse"><stop offset="0" stop-color="#f6e827"/><stop offset="0.02" stop-color="#f7e824"/><stop offset="0.18" stop-color="#fae919"/><stop offset="0.4" stop-color="#fcea12"/><stop offset="1" stop-color="#fcea10"/></linearGradient><linearGradient id="Dégradé_sans_nom_16" x1="612.16" y1="585.06" x2="815.22" y2="330.95" gradientUnits="userSpaceOnUse"><stop offset="0" stop-color="#ef781a"/><stop offset="0.11" stop-color="#f29318"/><stop offset="0.27" stop-color="#f6b315"/><stop offset="0.43" stop-color="#f8cb13"/><stop offset="0.6" stop-color="#fadc11"/><stop offset="0.78" stop-color="#fce710"/><stop offset="1" stop-color="#fcea10"/></linearGradient><linearGradient id="Dégradé_sans_nom_20" x1="509.56" y1="304.7" x2="550.26" y2="245.3" gradientUnits="userSpaceOnUse"><stop offset="0" stop-color="#f7b61e"/><stop offset="0.07" stop-color="#f8c51a"/><stop offset="0.17" stop-color="#fad616"/><stop offset="0.3" stop-color="#fbe112"/><stop offset="0.49" stop-color="#fce811"/><stop offset="1" stop-color="#fcea10"/></linearGradient><linearGradient id="Dégradé_sans_nom_59" x1="448.44" y1="290.6" x2="291.09" y2="720.65" gradientUnits="userSpaceOnUse"><stop offset="0" stop-color="#0097d9"/><stop offset="0.24" stop-color="#088ace"/><stop offset="0.68" stop-color="#1d68b2"/><stop offset="1" stop-color="#2e4b9a"/></linearGradient><linearGradient id="Dégradé_sans_nom_12" x1="448.81" y1="290.2" x2="291.11" y2="721.19" xlink:href="#Dégradé_sans_nom_59"/><linearGradient id="Dégradé_sans_nom_25" x1="434.65" y1="406.79" x2="554.49" y2="226.83" gradientUnits="userSpaceOnUse"><stop offset="0" stop-color="#f7b61e"/><stop offset="0.32" stop-color="#f7b91d"/><stop offset="0.57" stop-color="#f8c31b"/><stop offset="0.79" stop-color="#fad416"/><stop offset="1" stop-color="#fcea10"/></linearGradient><linearGradient id="Dégradé_sans_nom_59-2" x1="368.21" y1="111.26" x2="299.6" y2="298.75" xlink:href="#Dégradé_sans_nom_59"/><linearGradient id="Dégradé_sans_nom_64" x1="264.08" y1="205.01" x2="403.73" y2="205.01" gradientUnits="userSpaceOnUse"><stop offset="0" stop-color="#ef7815"/><stop offset="0.18" stop-color="#f08517"/><stop offset="0.5" stop-color="#f2a81d"/><stop offset="0.94" stop-color="#f5df26"/><stop offset="1" stop-color="#f6e827"/></linearGradient><linearGradient id="Dégradé_sans_nom_59-3" x1="487.33" y1="302.93" x2="438.58" y2="436.15" xlink:href="#Dégradé_sans_nom_59"/><linearGradient id="Dégradé_sans_nom_65" x1="414.16" y1="369.54" x2="511.74" y2="369.54" gradientUnits="userSpaceOnUse"><stop offset="0" stop-color="#ef7815"/><stop offset="0.3" stop-color="#ef7a15"/><stop offset="0.48" stop-color="#f08317"/><stop offset="0.62" stop-color="#f19119"/><stop offset="0.75" stop-color="#f2a51c"/><stop offset="0.87" stop-color="#f3bf20"/><stop offset="0.97" stop-color="#f5de25"/><stop offset="1" stop-color="#f6e827"/></linearGradient><linearGradient id="Dégradé_sans_nom_59-4" x1="442.41" y1="60.72" x2="419.26" y2="123.99" xlink:href="#Dégradé_sans_nom_59"/><linearGradient id="Dégradé_sans_nom_120" x1="405.19" y1="92.36" x2="456.49" y2="92.36" gradientUnits="userSpaceOnUse"><stop offset="0" stop-color="#f6e827"/><stop offset="0.88" stop-color="#f6e827"/><stop offset="1" stop-color="#f6e827"/></linearGradient><linearGradient id="Dégradé_sans_nom_59-5" x1="545.23" y1="245.4" x2="521.66" y2="309.82" xlink:href="#Dégradé_sans_nom_59"/><linearGradient id="Dégradé_sans_nom_124" x1="509.86" y1="277.61" x2="557.04" y2="277.61" xlink:href="#Dégradé_sans_nom_120"/><linearGradient id="Dégradé_sans_nom_59-6" x1="1113.08" y1="234.2" x2="1113.08" y2="234.2" xlink:href="#Dégradé_sans_nom_59"/></defs><circle class="cls-1" cx="432.08" cy="93.42" r="36"/><path class="cls-2" d="M764.87,603.16a35.75,35.75,0,0,1-2.25,12.54l-14.68,18-53.35,65.39a136.13,136.13,0,1,1-211-172.1l97.74-119.8,20.81-25.5a38.27,38.27,0,0,1,28.77-1.53,38.16,38.16,0,0,1,25.59,36,37.27,37.27,0,0,1-.6,6.73h0l-23.39,28.67L536.1,569.8a68.4,68.4,0,1,0,106,86.48l52.58-64.45L710.9,572a36,36,0,0,1,54,31.2Z" transform="translate(-243.09 -265)"/><circle class="cls-3" cx="529.91" cy="275" r="36"/><path class="cls-4" d="M560.47,335.64C558,337,556,338,555,340c-18.82,22.1-67.09,78.83-96,113-.44.53-4.53,5.36-10,12-23.06,28-34.59,42-44,58-4.2,7.13-12.5,23.42-19.26,45.2C373.83,606.57,372.8,647.3,392,685a63.76,63.76,0,0,0,8,14c5,9,11,16,16.71,23.53-1,.75-1.82,1.3-2.44,1.67l-.06,0C389.81,740.51,358.07,747.57,331,735c-16-7-30-19-41.55-31l0,0a282.78,282.78,0,0,1,37.65-355C458.5,263.7,560.47,335.64,560.47,335.64Z" transform="translate(-243.09 -265)"/><path class="cls-5" d="M665.55,795.67a282.95,282.95,0,0,1-299.61-13.23c40.71,21.48,87-17.6,87-17.6S549.25,844.25,665.55,795.67Z" transform="translate(-243.09 -265)"/><path class="cls-6" d="M330.2,338.84s97.08-89.52,274.32,0c0,0,44.78,2.28,42.91-44.76C647.43,294.08,466.28,204.92,330.2,338.84Z" transform="translate(-243.09 -265)"/><line class="cls-7" x1="401.42" y1="123.41" x2="266.39" y2="286.6"/><line class="cls-8" x1="509.39" y1="311" x2="416.51" y2="428.08"/><line class="cls-9" x1="407.47" y1="119.68" x2="454.21" y2="65.03"/><line class="cls-10" x1="512.27" y1="306.38" x2="554.62" y2="248.83"/><path class="cls-11" d="M1113.08,234.2" transform="translate(-243.09 -265)"/></svg>